<?xml version="1.0" standalone="no"?>
<!DOCTYPE svg PUBLIC "-//W3C//DTD SVG 1.1//EN" "http://www.w3.org/Graphics/SVG/1.1/DTD/svg11.dtd" >
<svg xmlns="http://www.w3.org/2000/svg">
<metadata>Generated by IcoMoon</metadata>
<defs>
<font id="smarticon" horiz-adv-x="1024">
<font-face units-per-em="1024" ascent="960" descent="-64" />
<missing-glyph horiz-adv-x="1024" />
<glyph unicode="&#x20;" d="" horiz-adv-x="512" />
<glyph unicode="&#xe016;" d="M740.89 959c9.51 0 14.951-4.076 14.951-13.633v-997.494c0-6.793-2.723-10.873-10.873-10.873h-84.24c-5.414 0-9.486 5.438-9.486 9.512v369.314h-67.932l-188.822-369.314c-2.719-6.795-8.15-9.512-16.309-9.512h-96.451c-10.85 0-17.643 9.512-10.85 21.789l207.82 376.104c-111.375 49.057-173.865 148.533-173.865 283.428 0 224.856 129.043 340.68 281.19 340.68h154.867zM651.242 403.024v468.784h-69.295c-82.859 0-164.355-69.486-164.355-239.856 0-163.518 86.934-228.928 176.59-228.928h57.061z" />
<glyph unicode="&#xe017;" d="M1018.73 173.432c-11.826-13.301-43.33-16.248-43.33-16.248h-167.902s-23.475-5.48-64.996 37.914c-28.525 29.814-57.844 73.795-81.242 92.076-13.953 10.9-27.082 5.416-27.082 5.416s-24.5-1.174-27.082-27.082c-4.537-45.504-10.832-70.41-10.832-70.41s-2.988-19.238-10.832-27.082c-8.381-8.381-21.664-10.832-21.664-10.832s-231.73-52.236-411.634 238.314c-129.83 209.688-146.238 270.81-146.238 270.81s-11.012 14.813 0 32.498c11.625 18.668 27.082 16.248 27.082 16.248h151.654s16.768-1.807 27.082-10.832c11.303-9.891 16.25-27.082 16.25-27.082s33.242-80.387 70.41-140.822c51.361-83.508 75.828-75.828 75.828-75.828s44.352 12.34 16.248 200.402c-3.887 26.016-54.162 32.498-54.162 32.498s-0.465 22.455 10.832 32.498c12.959 11.521 27.082 10.832 27.082 10.832s22.49 3.928 102.908 5.416c40.652 0.75 70.41 0 70.41 0s19.789 0.658 43.33-16.25c11.393-8.182 10.832-27.082 10.832-27.082s-4.775-135.725 0-205.818c2.059-30.148 16.25-32.498 16.25-32.498s15.244-11.805 75.826 75.828c38.338 55.453 70.412 135.406 70.412 135.406s7.939 22.801 16.248 32.498c7.93 9.25 21.666 10.832 21.666 10.832h194.984s12.021 0.441 16.248-10.832c3.881-10.354 0-32.498 0-32.498s-2.131-24.529-21.664-54.164c-46.125-69.979-135.406-184.15-135.406-184.15s-6.701-15.504-5.416-27.082c1.416-12.742 10.832-21.664 10.832-21.664s67.293-60.891 113.74-113.742c25.094-28.557 43.33-64.994 43.33-64.994s9.604-21.688-0.002-32.494z" />
<glyph unicode="&#xe019;" d="M788.912 944.664c-2.039-5.715-189.543-516.082-240.876-659.548v-338.188c0-6.207-3.715-9.928-8.658-9.928h-79.932c-6.189 0-8.662 3.719-8.662 9.928v340.876c-61.58 155.035-214.024 560.832-216.138 565.322-2.668 5.615 2.018 14.672 10.244 14.672h84.398c11.193 0 14.121-7.932 15.82-14.316 3.045-11.629 107.139-302.672 118.016-336.292l44.693-122.127c5.18 19.598 26.773 101.248 33.379 124.404 9.355 32.666 137.871 424.84 138.977 430.316 1.107 5.459 5.893 9.215 13.527 9.215h86.457c10.516 0.002 11.248-7.354 8.756-14.334z" />
<glyph unicode="&#xe021;" d="M942.786 817.596c133.127-156.57 45.684-467.43-195.318-694.324-15.066-14.193-49.473-43.33-49.621-42.736-195.818-164.178-428.83-191.371-539.176-61.604-55.525 65.312-69.166 159.607-46.611 261.068 17.713 79.688 57.781 163.779 117.439 241.732l-46.65 62.434c-81.262-96.309-135.295-202.184-157.404-300.958-2.16-0.131-4.311-0.264-6.473-0.41 21.936 101.365 75.742 210.426 156.791 310.852l-114.654 153.449c-30.305 40.564 0.979 115.184 69.883 166.666 68.904 51.486 149.33 60.336 179.643 19.773l98.654-131.781c207.174 129.396 425.904 142.379 533.498 15.84zM556.038 530.224l-200.1 268.336c-30.49-4.004-66.186-18.967-99.533-43.885-0.57-0.424-1.092-0.871-1.652-1.299l170.062-227.612c17.047-18.709 99.742-22.844 131.223 4.459zM436.946 497.99c10.389-53.635-22.35-106.713-33.816-124.604l153.451-69.533c3.748 7.092 9.316 13.76 16.578 19.186 7.264 5.428 15.25 8.879 23.125 10.463l-26.271 177.996-2.852 3.824c-22.172-16.557-79.191-37.479-130.215-17.332zM476.628 711.804l135.834-181.443 38.783-304.464 20.193 16.266c2.912 2.668 13.891 11.33 13.914 11.35 169.91 139.639 234.896 338.214 145.129 443.808-69.982 82.314-213.372 83.777-353.854 14.484zM155.033 881.586c-33.922-25.348-71.098-77.855-55.568-110.514 11.332 30.068 37.082 63.031 73.225 90.035 34.092 25.475 70.656 40.574 101.598 44.172-27.141 18.645-87.428 0.084-119.254-23.693zM158.52 690.874c11.109 30.367 37.064 63.814 73.65 91.148 34.615 25.867 71.791 41.061 103.025 44.352l-38.289 51.342c-30.592-3.908-66.477-18.908-99.988-43.951-37.893-28.316-64.273-63.158-74.66-94.363zM181.621 659.954l205.608-275.17c49.891 64.543 24.002 130.838 24.002 130.838l-169.654 227.054c-30.072-25.936-51.061-55.689-59.955-82.723zM890.008 335.053c0.191 0.082 0.404 0.172 0.609 0.262 91.205 166.887 103.135 339.124 15.014 442.638-98.598 115.775-293.556 111.709-482.93 5.889l43.459-58.053c114.045 63.949 232.046 83.283 316.812 52.467 1.967-0.592 3.975-1.133 5.914-1.771-0.129-0.125-0.244-0.25-0.371-0.369 27.408-10.871 51.188-27.084 69.871-49.029 94.092-110.508 25.146-322.028-153.996-472.426-3.002-2.525-6.037-4.947-9.076-7.385l0.051-0.041-41.674-32.656-2.66 4.199-77.275 33.266c-2.256 0.717-4.396 1.641-6.42 2.766l-204.012 87.822-123.303 165.021c-55.576-75.746-91.117-156.773-103.654-232.38-14.008-84.516 0.672-162.252 48.213-218.198 102.688-120.854 331.42-108.662 509.516 46.375 71.93 62.623 142.662 132.311 195.912 231.604z" />
<glyph unicode="&#xe023;" d="M993.858 398.030c21.617-40.352 24.502-82.117 12.969-125.342-12.969-44.664-38.898-79.268-77.814-100.875-40.352-21.6-80.691-23.055-126.791-8.643-17.299 4.334-31.711 11.516-46.113 21.607 7.209-36.020 7.209-67.709 0-99.416-8.641-30.254-25.928-54.752-50.426-69.164-25.939-17.299-54.764-18.732-83.57-10.092-28.826 7.207-54.77 27.365-82.141 57.65l-1.438-8.648c-12.975-43.238-38.896-77.814-79.258-99.445-41.777-21.607-85.014-23.031-128.238-11.516-25.941 7.203-47.543 17.295-64.834 33.146-11.533 12.938-23.066 27.373-33.15 43.223-21.621 41.766-25.932 82.119-11.535 128.229l7.207 18.746 25.945 43.225c-36.014-11.553-69.148-11.553-100.857-4.346-17.281 1.43-31.693 8.637-43.221 18.721-11.533 7.207-18.723 17.299-25.928 28.814-14.414 24.502-17.293 50.432-10.086 76.371 7.205 21.621 18.717 43.221 38.893 60.512l21.619 18.738-10.084 2.879c-25.928 4.313-47.545 14.404-64.838 31.699-11.514 8.645-24.49 21.6-33.135 37.457-20.164 36.014-21.617 74.912-5.77 115.264 17.299 41.799 43.236 72.049 85.020 93.666 40.336 21.617 80.695 27.383 123.914 17.295l34.596-11.529-10.092 14.398c-21.617 40.338-28.822 80.693-21.617 122.475 7.205 40.342 24.502 69.16 54.764 87.898 27.373 14.412 53.311 17.295 85.002 10.088 36.020-10.088 64.846-31.705 87.918-67.676l14.412-25.941 5.764-10.088 1.445 10.088v2.883c12.957 43.236 41.781 76.385 82.117 97.986 40.355 21.619 82.135 25.943 126.797 14.412 43.227-11.527 74.912-33.131 96.531-69.162l4.326-7.205c24.498-41.779 28.826-86.461 14.412-132.564l-15.854-36.014 47.545 10.088c21.605 1.439 46.102 1.439 67.723-2.883 36.014-10.074 59.074-28.807 76.354-57.631v-2.885c14.416-25.939 17.301-51.867 7.209-83.578-14.412-38.916-46.107-69.166-90.787-90.783 15.854-7.207 33.146-14.414 47.549-24.498 17.297-11.516 28.811-28.811 40.34-46.105zM784.954 638.626l-145.523-121.035-5.77-7.207 2.885-4.309 2.883-10.092 177.223 21.619c17.295 2.875 33.146 5.752 47.545 12.959 36.012 15.855 57.633 36.014 67.717 61.953l2.885 14.412-5.766 18.723c-8.631 17.297-25.922 28.814-50.426 31.697-25.939 2.879-50.432 0-76.371-11.533zM540.006 820.144l-1.439-14.398 1.441-57.635 14.395-162.812c14.412-7.209 28.826-14.414 41.793-24.504l129.686 158.521c8.648 12.957 15.854 27.369 21.617 43.221l4.322 31.693c0 18.736-4.322 36.029-11.527 50.428-12.973 24.488-34.592 40.338-64.857 47.529-27.371 10.088-56.195 7.193-82.125-7.205-25.939-14.412-46.096-36.033-53.305-64.838zM293.6 815.834c-2.879-25.941 4.328-50.428 15.816-76.387l7.205-14.393 128.24-139.77 21.621 7.207-28.807 170.031c-2.877 17.295-10.084 31.693-17.291 46.105-17.299 36.018-38.904 54.752-64.846 61.957-11.514 5.766-24.484 5.766-33.133-1.439-17.271-10.090-27.361-27.369-28.807-53.312zM81.801 510.35c11.527-21.6 28.811-33.127 54.752-37.455l14.412-2.879 207.488 25.939c4.322 14.412 11.51 28.826 23.045 43.221l-126.799 92.227-38.916 15.854c-28.822 7.207-54.752 2.887-80.674-11.543-27.381-11.52-46.104-33.137-56.195-60.52-8.643-21.617-8.643-43.223 2.887-64.844zM257.568 278.373l11.533 7.207 43.238 36.031c17.273 15.857 33.129 33.148 54.746 51.871l-4.326 10.090-10.086 28.824-115.281-21.619c-11.529-2.883-25.941-10.090-43.227-17.295-33.146-15.869-51.881-37.459-59.086-59.088l-2.885-12.959 4.322-15.855c7.207-12.953 24.502-20.158 46.123-21.602 24.502-2.896 47.545 1.441 74.928 14.395zM482.358 85.279h0.002v57.652c-7.205 56.195-11.529 108.070-14.414 157.064-15.854 1.443-30.248 8.648-44.662 15.838l-121.033-144.102c-11.527-11.516-18.736-25.947-21.619-40.359l-7.207-33.117c0-17.295 5.762-34.594 12.969-49 11.535-23.064 33.154-40.359 61.955-47.529 25.947-7.209 53.328-4.328 79.256 10.084 25.928 11.531 43.225 33.152 53.311 59.055zM434.81 373.48c17.279-18.723 40.34-28.809 67.721-28.809 25.941 0 47.543 10.086 66.281 28.809 20.178 17.295 28.826 41.797 28.826 67.727 0 25.928-8.648 47.541-28.826 67.717-15.855 15.838-40.34 25.928-66.281 25.928-27.381 0-50.441-10.072-67.721-25.928-18.734-20.174-28.814-41.787-28.814-67.717s10.080-50.432 28.814-67.727zM701.38 121.309c2.879 27.389-4.328 50.443-17.295 74.945l-7.207 14.412-37.457 46.105-60.523 61.955-18.717-10.086-24.502-8.648 21.619-125.369 17.297-47.535c15.836-34.588 37.457-56.225 64.838-63.395 11.514-1.461 23.043-1.461 33.135 5.746 17.277 7.207 25.928 25.928 28.812 51.869zM949.222 289.926l4.303 28.803c0 24.502-7.207 46.107-21.602 61.957-11.51 21.609-31.689 34.576-53.311 41.785l-14.412 1.443-57.631-1.443-162.828-14.395-4.338-17.309-10.086-21.607 151.293-125.367c10.105-11.518 21.621-18.725 38.916-23.033 28.824-10.090 54.754-7.205 80.695 7.207 24.498 11.516 41.793 33.115 49 61.959z" />
<glyph unicode="&#xe024;" d="M896.202 757.404c175.062-182.875 164.854-525.296-5.922-658.394-77.365-60.48-192.266-1.633-191.533 86.502l-0.807 28.812c-53.869-53.455-125.555-84.645-203.664-84.645-154.326 0-290.114 135.754-290.114 290.080 0 155.855 135.787 293.224 290.114 293.224 78.109 0 151.559-34.523 205.458-88.584v-0.203c0 25.947 17.455 45.518 41.715 45.518l6.135 0.031c37.908 0 45.697-35.869 45.697-47.236l0.193-403.488c-2.674-26.424 27.252-40.064 43.861-23.113 64.787 66.582 142.291 342.284-40.275 502.024-170.16 148.924-398.476 124.389-519.904 40.688-129.068-89.018-211.676-286.068-131.424-471.14 87.445-201.862 337.73-262.064 486.462-201.986 75.326 30.381 110.113-71.434 31.889-104.693-118.199-50.334-447.186-45.264-600.876 220.942-103.82 179.766-98.303 496.028 177.092 659.894 210.666 125.375 488.416 90.684 655.902-84.23zM493.246 224.764c114.656 0 190.047 83.986 195.502 183.34l-0.254 22.828c-5.805 112.992-89.684 180.945-190.961 180.945h-3.842c-116.887 0-181.707-91.928-181.707-196.355 0-116.893 78.426-190.758 181.262-190.758z" />
<glyph unicode="&#xe028;" d="M825.044 549.466l197.955-169.664-306.347-183.812-202.624 155.518-202.688-155.518-310.341 183.813 213.716 162.604-213.716 162.58 310.34 202.148 202.688-173.881 207.354 173.881 301.62-192.711zM514.658 724.244l-296.242-178.99 293.574-184.953 295.41 195.758zM725.416 167.396l90.279 54.164v-49.254l-304.398-197.443-297.656 198.789v46.428l98.936-58.602 9.146 6.994 192.305 147.559 201.455-154.6z" />
<glyph unicode="&#xe02c;" d="M469.856 489.664c3.744 0 7.52 1.312 10.56 3.968l362.144 317.504-21.12 24.064-362.144-317.472c-6.656-5.824-7.328-15.936-1.472-22.592 3.168-3.616 7.584-5.472 12.032-5.472zM326.016-64c196.544 0 313.984 154.56 313.984 304 0 43.072-10.304 90.528-25.536 121.344l144.704 72.352c5.408 2.72 8.832 8.256 8.832 14.304v128h96c0.352 0 3.264 0.192 3.616 0.192 21.312 1.44 27.68 8.224 28.384 31.808v128h96c4.128 0 6.976-0.448 8.896-0.736 3.872-0.608 11.104-1.728 17.376 3.904 6.464 5.76 6.176 13.056 5.92 19.488-0.064 2.304-0.192 5.344-0.192 9.344v144.992c0 25.92-21.088 47.008-47.008 47.008h-124c-11.328 0-22.336-4.128-31.008-11.648l-421.984-369.92c-20.768 4.16-52.16 9.568-74.016 9.568-179.744 0-325.984-146.24-325.984-325.984s146.24-326.016 326.016-326.016zM326.016 556c16.032 0 43.488-3.84 75.328-10.496 4.96-1.088 10.048 0.32 13.824 3.616l427.872 375.104c2.784 2.432 6.336 3.776 9.952 3.776h124c8.288 0 15.008-6.72 15.008-15.008v-144.992h-112c-8.832 0-16-7.168-16-16v-144h-112c-8.832 0-16-7.168-16-16v-134.112l-151.168-75.584c-4.192-2.080-7.264-5.952-8.384-10.496s-0.192-9.376 2.56-13.184c14.080-19.424 28.992-67.648 28.992-118.624 0-133.696-105.472-272-281.984-272-162.112 0-294.016 131.904-294.016 294.016s131.904 293.984 294.016 293.984zM272 96c61.76 0 112 50.24 112 112s-50.24 112-112 112-112-50.24-112-112 50.24-112 112-112zM272 288c44.096 0 80-35.904 80-80s-35.904-80-80-80-80 35.904-80 80 35.904 80 80 80z" />
<glyph unicode="&#xe040;" d="M16-63.456c8.576-2.144 17.344 2.816 19.584 11.328 32.96 122.976 166.912 154.848 246.976 173.92 20.064 4.768 35.904 8.544 46.208 12.992 91.2 39.584 120.928 103.264 129.824 149.728 1.088 5.6-0.928 11.36-5.28 15.136-47.488 40.992-87.552 102.528-112.832 173.312-0.704 2.016-1.824 3.872-3.296 5.472-33.44 36.352-52.64 74.784-52.64 105.408 0 17.888 6.752 29.888 21.952 38.944 4.64 2.784 7.552 7.68 7.776 13.056 7.072 163.008 123.168 291.328 265.568 292.16 0.16 0 3.264-0.224 3.424-0.224 143.104-1.984 258.464-133.056 262.592-298.368 0.128-4.576 2.176-8.864 5.696-11.808 10.016-8.48 14.688-19.232 14.688-33.824 0-25.632-13.664-57.152-38.432-88.704-1.184-1.504-2.080-3.232-2.688-5.056-25.6-81.152-71.552-152.8-126.016-196.64-4.608-3.712-6.784-9.664-5.696-15.456 8.896-46.432 38.624-110.080 129.824-149.728 10.784-4.672 27.52-8.32 48.736-12.896 79.264-17.152 211.904-45.92 244.448-167.424 1.92-7.136 8.384-11.84 15.424-11.84 1.376 0 2.752 0.192 4.16 0.544 8.544 2.304 13.6 11.072 11.328 19.616-37.6 140.384-187.872 172.928-268.576 190.4-18.72 4.064-34.88 7.552-42.752 11.008-59.52 25.856-96.192 65.248-109.152 117.28 55.264 47.456 101.504 120.672 127.936 202.784 28.064 36.48 43.488 74.048 43.488 106.144 0 21.408-6.912 39.264-20.608 53.216-7.616 179.328-135.584 320.544-294.4 322.816l-4.768 0.064c-155.936-0.832-284.448-138.336-295.68-314.56-20.032-14.72-30.208-35.36-30.208-61.568 0-37.856 21.408-83.136 58.88-124.672 25.888-71.136 66.016-133.632 113.792-177.376-12.896-52.224-49.6-91.744-109.248-117.632-7.712-3.36-23.072-7.040-40.864-11.264-81.312-19.328-232.608-55.328-270.496-196.704-2.272-8.544 2.784-17.28 11.328-19.584z" horiz-adv-x="1152" />
<glyph unicode="&#xe041;" d="M711.040 296.768c-5.024 0.768-10.144-1.216-13.6-4.96-3.488-3.712-4.992-8.896-4.032-13.92 8.832-46.4 38.56-110.080 129.824-149.728 10.816-4.672 27.52-8.32 48.704-12.896 79.296-17.152 211.904-45.888 244.48-167.424 1.92-7.136 8.384-11.84 15.456-11.84 1.376 0 2.752 0.192 4.16 0.544 8.544 2.304 13.6 11.072 11.328 19.616-37.664 140.384-187.904 172.928-268.64 190.4-18.688 4.064-34.848 7.552-42.752 11.008-54.848 23.808-90.272 59.136-105.632 105.152 152.384-11.328 221.376 49.376 224.416 52.128 3.776 3.424 5.728 8.512 5.152 13.6s-3.52 9.6-7.968 12.16c-87.936 50.24-87.936 223.84-87.936 289.216 0 182.816-123.136 327.744-280.992 330.016-0.448 0.032-3.872 0.096-4.512 0.096 0 0 0 0-0.032 0-160.16-0.896-290.464-145.984-290.464-323.456 0-65.376 0-239.008-87.936-289.216-4.64-2.656-7.616-7.424-8.032-12.736-0.384-5.312 1.92-10.496 6.112-13.792 4.416-3.424 102.016-78.112 222.112-55.424-16.064-44.096-51.008-78.016-104.256-101.152-7.712-3.36-23.072-7.040-40.864-11.264-81.28-19.328-232.608-55.328-270.496-196.704-2.272-8.576 2.784-17.312 11.328-19.616 8.672-2.144 17.312 2.816 19.616 11.328 32.928 123.008 166.944 154.848 246.976 173.92 20.064 4.768 35.904 8.544 46.208 12.992 91.264 39.648 120.96 103.328 129.824 149.728 1.056 5.536-0.864 11.232-5.088 14.944-4.192 3.744-9.984 5.024-15.424 3.328-86.624-27.264-166.656 10.24-201.632 31.040 83.552 69.952 83.552 230.944 83.552 302.624 0 159.904 116.032 290.656 259.84 291.52 0.16 0 3.264-0.192 3.392-0.192 141.824-2.016 248.768-130.112 248.768-297.984 0-71.712 0-233.056 83.904-303.008-28.896-16.512-94.784-43.232-204.864-30.048z" horiz-adv-x="1152" />
<glyph unicode="&#xe0ae;" d="M512 959c281.758 0 511-229.218 511-510.984 0-281.764-229.242-511.016-511-511.016-281.766 0-511 229.252-511 511.016 0 281.766 229.234 510.984 511 510.984zM52.574 448.016c0-181.844 105.66-339.020 258.944-413.472l-219.164 600.45c-25.49-57.131-39.779-120.363-39.779-186.977zM512-11.443c53.496 0 104.812 9.24 152.568 26.047-1.223 1.973-2.361 4.061-3.293 6.33l-141.207 386.892-137.865-400.548c41.18-12.107 84.703-18.721 129.797-18.721zM575.318 663.428l166.031-493.866 45.834 153.107c19.838 63.568 34.959 109.203 34.959 148.518 0 56.805-20.402 96.113-37.877 126.711-23.287 37.852-45.127 69.887-45.127 107.748 0 42.236 32.021 81.541 77.146 81.541 2.041 0 3.979-0.25 5.957-0.365-81.74 74.895-190.643 120.629-310.242 120.629-160.51 0-301.718-82.365-383.868-207.078 10.795-0.35 20.949-0.564 29.566-0.564 48.049 0 122.445 5.838 122.445 5.838 24.76 1.455 27.68-34.932 2.936-37.861 0 0-24.893-2.908-52.572-4.357l167.299-497.66 100.553 301.536-71.566 196.125c-24.762 1.449-48.191 4.357-48.191 4.357-24.766 1.465-21.863 39.316 2.912 37.861 0 0 75.852-5.838 120.988-5.838 48.047 0 122.461 5.838 122.461 5.838 24.768 1.455 27.688-34.932 2.936-37.861 0 0-24.926-2.908-52.58-4.357zM742.972 50.91c136.592 79.637 228.446 227.614 228.446 397.106 0 79.887-20.41 154.98-56.273 220.41 1.977-14.629 3.094-30.334 3.094-47.25 0-46.59-8.732-99.004-34.939-164.543z" />
<glyph unicode="&#xe0c2;" d="M132.168 959h759.638c72.158 0 131.193-59.010 131.193-131.168v-759.638c0-72.158-59.035-131.193-131.193-131.193h-759.638c-72.158 0-131.168 59.035-131.168 131.193v759.638c0 72.158 59.010 131.168 131.168 131.168v0zM745.468 845.472c-25.301 0-46.012-20.711-46.012-46.010v-110.135c0-25.301 20.709-46.010 46.012-46.010h115.523c25.301 0 46.010 20.707 46.010 46.010v110.135c0 25.299-20.707 46.010-46.010 46.010h-115.523zM907.476 526.82h-89.951c8.508-27.795 13.102-57.213 13.102-87.705 0-169.992-142.223-307.794-317.68-307.794-175.432 0-317.652 137.803-317.652 307.794 0 30.49 4.59 59.908 13.1 87.705h-93.842v-431.708c0-22.355 18.264-40.643 40.621-40.643h711.682c22.332 0 40.623 18.289 40.623 40.643v431.708h-0.002zM512.95 649.106c-113.354 0-205.25-89.049-205.25-198.885s91.896-198.887 205.25-198.887c113.377 0 205.274 89.051 205.274 198.887s-91.896 198.885-205.274 198.885z" />
<glyph unicode="&#xe0c6;" d="M993.244 636.968l-116.617-24.85c-17.332-4.906-64.475-39.625-146.318-106.635-86.84-69.475-131.504-114.098-138.93-136.467l-4.961-61.994-2.5-37.254 9.926-94.211 153.797-2.463-2.48-47.125h-250.53l-223.272-2.52 7.48 44.682 71.91 2.461c37.236 2.5 59.584 7.426 67.010 14.924 4.926 4.889 7.426 34.664 7.426 86.791v32.199l-2.5 64.512c-4.926 14.906-44.67 69.457-121.531 163.74-79.365 96.713-131.486 153.816-156.281 173.686l-143.873 19.828v42.199c7.424 4.926 86.824 4.926 233.178 2.445 101.684 2.482 186.037 2.482 253.018-2.445l-4.961-34.811-151.299-14.852c47.080-69.438 119.062-166.24 215.784-287.744 126.541 96.783 193.459 158.758 195.959 186.016l-128.986 19.885-9.926 44.625h215.81l203.422-2.48-29.754-42.143z" />
<glyph unicode="&#xe0cc;" d="M1018.644 724.706c-11.75-61.846-89.539-278.26-230.552-469.24-61.652-80.738-133.715-160.059-226.162-214.78-34.152-20.25-101.57-45.729-146.414-26.684-87.926 37.227-119.127 189.193-144.52 290.912-15.020 60.059-29.158 116.912-47.514 169.158-13.73 39.207-20.42 79.082-41.854 115.449-35.248 59.521-85.775 2.324-138.775 10.092-22.465 3.293-26.576 27.201-41.854 41.791v5.746c77.016 61.416 144.863 135.848 233.89 188.182 27.951 16.463 75.574 34.129 114.070 22.811 35.85-10.457 65.182-58.746 77.963-98.814 14.826-46.566 22.811-102.988 30.363-148.285 13.557-80.697 9.080-201.89 68.346-265.286 65.801-70.408 115.961 27.264 142.73 77.016 23.18 43.146 43.898 88.184 47.492 129.264 8.586 98.213-38.131 111.428-127.348 104.646 50.352 156.248 198.295 221.514 242.042 228.228 53.773 8.221 132.273 6.498 169.135-40.174 26.404-33.248 26.596-77.232 18.959-120.033z" />
<glyph unicode="&#xe0cf;" d="M918.372 656.426c0.406-9.002 0.611-18.045 0.611-27.129 0-277.084-210.922-596.57-596.548-596.57-118.418 0-228.644 34.713-321.432 94.207 16.424-1.945 33.092-2.939 50.023-2.939 98.242 0 188.637 33.518 260.418 89.768-91.773 1.682-169.191 62.309-195.875 145.607 12.816-2.453 25.936-3.771 39.459-3.771 19.102 0 37.633 2.574 55.234 7.359-95.91 19.268-168.199 104.004-168.199 205.592 0 0.891 0 1.764 0.021 2.635 28.266-15.693 60.588-25.123 94.977-26.217-56.268 37.592-93.275 101.77-93.275 174.523 0 38.424 10.32 74.436 28.387 105.4 103.414-126.854 257.882-210.312 432.144-219.072-3.568 15.35-5.436 31.348-5.436 47.791 0 115.783 93.881 209.664 209.664 209.664 60.346 0 114.807-25.467 153.049-66.203 47.773 9.387 92.627 26.846 133.139 50.875-15.654-48.969-48.869-90.049-92.178-116.004 42.418 5.070 82.852 16.342 120.443 33.010-28.102-42.035-63.666-78.959-104.627-108.525z" />
<glyph unicode="&#xe0da;" d="M274.354 73.832c0-74.928-60.756-135.684-135.66-135.684s-135.684 60.756-135.684 135.684c0 74.953 60.783 135.686 135.684 135.686 74.902 0 135.66-60.732 135.66-135.686zM3.457 959c561.078 0 1017.534-458.454 1017.532-1022h-195.889c0 455.506-368.604 826.132-821.642 826.132v195.867zM3.16 611.78c370.424 0 671.786-302.608 671.786-674.58h-195.842c0 128.102-49.553 248.366-139.502 338.738-89.824 90.248-209.29 139.953-336.442 139.953v195.889z" />
<glyph unicode="&#xe0db;" d="M441.292 283.051c-26.848-140.701-59.609-275.588-156.693-346.050-29.992 212.66 43.988 372.376 78.346 541.942-58.586 98.584 7.037 296.996 130.57 248.12 152.002-60.133-131.617-366.558 58.76-404.834 198.811-39.949 279.978 344.952 156.719 470.108-178.127 180.744-518.488 4.115-476.644-254.656 10.18-63.252 75.531-82.439 26.125-169.768-114.002 25.301-148.010 115.199-143.645 235.066 7.061 196.215 176.281 333.574 346.048 352.586 214.68 24.027 416.16-78.797 443.98-280.752 31.34-227.958-96.883-474.824-326.458-457.058-62.23 4.84-88.354 35.682-137.107 65.299z" />
<glyph unicode="&#xe0de;" d="M512.036 441.688c-142.895 0-258.718 115.799-258.716 258.668 0 142.871 115.822 258.644 258.716 258.644 142.846 0 258.62-115.773 258.622-258.644 0-142.869-115.773-258.668-258.622-258.668zM512.036 827.608c-70.338 0-127.275-56.963-127.275-127.25s56.939-127.25 127.275-127.25c70.264 0 127.225 56.963 127.225 127.25s-56.961 127.25-127.225 127.25zM810.15 410.124c25.451-51.123-3.268-75.85-68.195-117.523-54.99-35.303-130.344-48.654-179.57-53.744l193.568-193.596c23.182-23.178 23.182-60.705 0-83.887l-6.959-7.012c-23.178-23.154-60.707-23.154-83.887 0-38.748 38.75-94.562 94.59-152.449 152.428l-152.402-152.428c-23.178-23.154-60.705-23.154-83.887 0l-6.959 7.012c-23.18 23.154-23.18 60.709 0 83.863 38.75 38.75 94.566 94.615 152.402 152.426l41.070 41.070c-49.182 4.965-125.381 18.264-180.822 53.869-64.924 41.67-93.693 66.396-68.193 117.521 14.598 29.344 55.018 53.744 108.764 11.402 72.682-57.238 189.402-57.238 189.402-57.238s116.646 0 189.328 57.238c53.773 42.342 94.219 17.941 108.789-11.402z" />
<glyph unicode="&#xe0e3;" d="M569.25 791.028c0 92.77 75.805 167.973 169.293 167.973 93.49 0 169.295-75.203 169.295-167.973 0-92.791-75.805-168.020-169.295-168.020-93.488 0-169.293 75.229-169.293 168.020zM738.542 582.836c131.52 0 238.16-105.793 238.156-236.31v-409.526h-477.092v222.24h-264.494v183.115h-187.818v214.48h0.41c0 68.365 55.842 123.758 124.719 123.758 55.557 0 102.586-36.055 118.732-85.832 32.061 30.34 75.402 49.104 123.232 49.104 77.973 0 144.105-49.627 168.535-118.717 41.742 35.855 96.064 57.688 155.619 57.688zM414.39 674.008c-70.139 0-127.027 56.439-127.027 126.078 0 69.613 56.891 126.055 127.027 126.055 70.176 0 127.039-56.441 127.039-126.055 0-69.639-56.863-126.078-127.039-126.078zM172.426 701.654c-48.953 0-88.652 39.371-88.652 87.979 0 48.604 39.699 87.977 88.652 87.977 48.969 0 88.664-39.373 88.664-87.977 0-48.605-39.695-87.979-88.664-87.979z" />
<glyph unicode="&#xe0e5;" d="M233.008-40.438v0.002h-219.058v659.126h219.058v-659.128zM123.502 708.652v-0.002h-1.441c-73.516 0-121.061 50.656-121.061 113.906 0 64.656 48.988 113.881 123.934 113.883 74.934 0 121.061-49.225 122.504-113.881 0-63.25-47.57-113.906-123.936-113.906zM354.248-40.438c0 0 2.873 597.286 0 659.126h219.092v-95.588h-1.453c28.807 44.98 80.707 111.066 198.879 111.066 144.17 0 252.232-94.205 252.232-296.666v-377.942h-219.056v352.616c0 88.602-31.695 149.062-110.994 149.062-60.508 0-96.566-40.76-112.402-80.16-5.795-14.023-7.205-33.723-7.205-53.422v-368.094h-219.092z" />
<glyph unicode="&#xe0ed;" d="M751.594 760.254l-1.672-121.041 190.68-0.324-0.848-131.697-190.855-0.896v-569.294h-194.377v569.294h-217.377v-569.294h-194.361v569.294h-94.516v133.99l94.516-2.793s-13.498 156.271 59.385 242.804c72.871 86.457 125.258 72.584 186.264 78.123 61.035 5.564 175.523-30.742 175.523-30.742v-125.557s-113.406 47.459-164.67 36.281c-51.311-11.129-59.408-78.148-59.408-78.148l4.006-122.062h116.123l93.721 0.672s-12.703 154.9 60.184 241.434c72.883 86.457 125.258 72.584 186.336 78.123 60.934 5.564 175.484-30.742 175.484-30.742v-125.557s-113.48 47.459-164.754 36.281c-51.301-11.129-59.383-78.148-59.383-78.148z" />
<glyph unicode="&#xe0ee;" d="M490.542 910.594c8.434-5.213 17.889-12.875 28.418-22.906 10.105-10.48 20.035-23.354 29.74-38.623 9.232-14.422 17.492-31.438 24.678-51.076 5.889-19.637 8.834-42.543 8.834-68.74-0.799-48.006-11.402-86.432-31.812-115.225-10.006-13.971-20.584-26.848-31.789-38.65-12.4-11.801-25.576-23.777-39.574-36.004-8.033-8.283-15.445-17.666-22.207-28.17-8.033-10.902-12-23.578-12-37.951 0-13.996 4.092-25.549 12.301-34.709 6.959-8.758 13.773-16.367 20.309-22.93l45.537-37.301c28.293-23.154 53.121-48.68 74.455-76.627 20.111-28.344 30.541-65.469 31.387-111.305 0-65.025-28.742-122.635-86.156-172.838-59.582-51.924-145.514-78.795-257.82-80.541-94.016 0.898-164.203 20.934-210.562 60.133-46.807 36.604-70.211 80.391-70.211 131.342 0 24.852 7.609 52.523 22.855 83.014 14.746 30.516 41.518 57.312 80.219 80.367 43.439 24.852 89.176 41.42 136.98 49.705 47.357 6.936 86.707 10.877 118.045 11.752-9.682 12.699-18.314 26.322-25.875 40.82-8.832 14.045-13.275 30.914-13.275 50.676 0 11.875 1.697 21.73 5.064 29.641 2.943 8.332 5.715 16.020 8.207 23.004-15.244-1.746-29.641-2.619-43.139-2.619-71.434 0.873-125.904 23.354-163.381 67.441-39.197 41.021-58.809 88.801-58.809 143.371 0 65.92 27.77 125.703 83.311 179.4 38.176 31.387 77.848 51.922 119.018 61.529 40.699 8.283 78.875 12.426 114.479 12.426h268.452l-82.914-48.406h-82.762zM542.368 137.932c0 34.059-11.105 63.75-33.336 89.051-23.504 24.004-60.23 53.469-110.232 88.402-8.559 0.873-18.615 1.32-30.141 1.32-6.836 0.898-24.328 0-52.572-2.643-27.797-3.893-56.189-10.23-85.258-18.963-6.836-2.645-16.469-6.537-28.842-11.828-12.402-5.637-25-13.721-37.826-24.201-12.402-10.904-22.855-24.455-31.414-40.623-9.83-17.018-14.77-37.527-14.77-61.553 0-47.133 21.381-85.959 64.15-116.547 40.596-30.564 96.135-46.26 166.646-47.158 63.25 0.898 111.557 14.846 144.893 41.918 32.506 26.648 48.701 60.906 48.701 102.824zM355.256 531.386c35.307 1.32 64.773 13.998 88.303 38.049 11.352 17.066 18.637 34.559 21.908 52.521 1.969 17.916 2.967 32.986 2.967 45.236 0 52.92-13.547 106.293-40.646 160.113-12.699 25.799-29.367 46.783-50.125 62.951-21.135 15.295-45.436 23.404-73.006 24.277-36.33-0.873-66.594-15.52-90.699-43.963-20.334-29.74-30.064-62.977-29.164-99.705 0-48.553 14.197-99.055 42.592-151.553 13.771-24.502 31.537-45.26 53.27-62.328 21.732-17.066 46.633-25.6 74.602-25.6zM1019.93 812.412v-68.242h-140.871v-140.873h-68.242v140.873h-140.877v68.242h140.877v140.85h68.242v-140.85h140.871z" />
<glyph unicode="&#xe0ef;" d="M672.398 910.594c8.434-5.24 17.918-12.875 28.445-22.906 10.105-10.48 20.037-23.354 29.715-38.623 9.281-14.398 17.492-31.438 24.652-51.076 5.885-19.637 8.859-42.543 8.859-68.74-0.797-48.031-11.406-86.432-31.791-115.225-10.008-13.971-20.609-26.848-31.811-38.65-12.398-11.801-25.604-23.777-39.6-36.004-7.982-8.283-15.393-17.689-22.184-28.143-8.008-10.93-11.975-23.58-11.975-37.977 0-13.973 4.094-25.549 12.303-34.73 6.959-8.734 13.723-16.369 20.283-22.906l45.539-37.326c28.316-23.129 53.145-48.654 74.453-76.602 20.115-28.344 30.566-65.469 31.391-111.281 0-65.049-28.723-122.66-86.16-172.861-59.553-51.951-145.488-78.797-257.792-80.543-94.016 0.873-164.229 20.908-210.588 60.133-46.809 36.578-70.213 80.391-70.213 131.342 0 24.852 7.609 52.498 22.855 82.988 14.771 30.541 41.494 57.338 80.219 80.391 43.465 24.852 89.15 41.42 136.982 49.678 47.381 6.961 86.754 10.879 118.041 11.752-9.68 12.725-18.287 26.35-25.871 40.82-8.859 14.047-13.252 30.941-13.252 50.703 0 11.826 1.697 21.73 5.039 29.641 2.971 8.332 5.689 15.992 8.213 23.004-15.248-1.746-29.621-2.596-43.145-2.596-71.434 0.85-125.904 23.33-163.355 67.418-39.223 41.021-58.811 88.826-58.811 143.371 0 65.92 27.77 125.68 83.312 179.373 38.174 31.414 77.822 51.924 118.965 61.555 40.721 8.283 78.871 12.426 114.502 12.426h268.452l-82.887-48.406-82.787 0.002zM724.25 137.906c0 34.084-11.105 63.75-33.336 89.076-23.504 24.004-60.258 53.469-110.285 88.402-8.533 0.873-18.563 1.32-30.119 1.32-6.836 0.85-24.352 0-52.572-2.643-27.77-3.918-56.213-10.23-85.258-18.963-6.836-2.645-16.441-6.588-28.867-11.801-12.4-5.664-24.977-13.748-37.801-24.227-12.402-10.93-22.855-24.455-31.414-40.623-9.83-17.018-14.746-37.527-14.746-61.553 0-47.133 21.359-86.006 64.1-116.547 40.623-30.59 96.162-46.285 166.701-47.158 63.225 0.875 111.555 14.822 144.865 41.918 32.486 26.646 48.732 60.879 48.732 102.797zM537.088 531.386c35.357 1.295 64.799 13.971 88.326 38.076 11.379 17.016 18.691 34.533 21.906 52.447 1.973 17.963 2.945 33.035 2.945 45.285 0 52.92-13.523 106.268-40.621 160.086-12.676 25.799-29.391 46.785-50.102 62.977-21.158 15.295-45.484 23.404-72.982 24.277-36.379-0.873-66.621-15.52-90.748-43.963-20.311-29.742-30.066-62.977-29.195-99.707 0-48.553 14.223-99.082 42.643-151.553 13.748-24.502 31.488-45.287 53.246-62.328 21.76-17.064 46.637-25.598 74.582-25.598z" />
<glyph unicode="&#xe0f0;" d="M1023 66.494v0 0h-1022v763.012h1022v-763.012zM876.49 222.896v0 0l-289.408 204.648-72.352-63.561-81.48 69.037-269.328-216.87-3.633-1.211h-1.229v-140.494h717.43v148.449zM876.49 249.145v0 0 429.47l-274.228-237.636zM830.906 821.57v0 0l-628.704 1.211 308.874-307.274 3.035 2.422 2.443 2.459 3.631 1.824 3.055 3.689 4.246 3.018 10.32 8.568 5.496 6.148 6.688 5.439 6.688 6.742 7.918 6.707 16.391 15.908 9.148 8.533 10.318 8.568 9.742 10.377 34.648 32.99 38.301 38.488 14.588 13.449 14.008 14.66 15.199 14.66 15.797 15.891 17.027 15.887 16.41 17.064 17.623 17.139zM417.454 446.472v0 0l-257.796 219.31-0.596-425.786z" />
<glyph unicode="&#xe0f6;" d="M485.098 448c0-133.688-108.363-242.052-242.048-242.052-133.686 0.002-242.048 108.365-242.048 242.052s108.363 242.048 242.048 242.048c133.688 0.002 242.048-108.363 242.048-242.048zM780.95 690.050c133.688 0 242.050-108.365 242.050-242.048 0-133.688-108.361-242.052-242.050-242.052-133.684 0-242.046 108.365-242.046 242.052 0 133.684 108.361 242.048 242.046 242.048z" />
<glyph unicode="&#xe0f8;" d="M566.244 715.652v-93.166h166.848l-18.090-148.734h-148.758v-536.75h-197.451v536.75h-102.887v148.734h102.887v112.604c0 55.641-4.193 82.041 19.449 125.156 23.654 43.113 90.373 100.102 205.772 98.73 115.426-1.422 164.080-12.527 164.080-12.527l-25.002-158.514s-73.705 19.463-109.885 12.527c-36.129-6.939-56.963-29.195-56.963-84.811z" />
<glyph unicode="&#xe109;" d="M68.707 959h91.92l59.207-182.191h5.727l56.465 182.191h92.707l-106.215-266.676v-189.178h-91.236v180.693zM384.386 762.686c0 26.748 10.99 48.006 32.984 63.877 21.969 15.867 51.498 23.801 88.602 23.801 33.785 0 61.455-8.383 83.012-25.1 21.609-16.715 32.385-38.225 32.385-64.574v-178.4c0-29.541-10.602-52.744-31.734-69.562-21.158-16.816-50.303-25.25-87.369-25.25-35.717 0-64.285 8.684-85.732 26.047-21.418 17.367-32.146 40.721-32.146 70.115v179.047zM468.41 577.152c0-9.533 2.879-16.818 8.707-22.059 5.814-5.189 14.111-7.734 24.902-7.734 11.064 0 19.861 2.594 26.361 7.885 6.512 5.338 9.781 12.625 9.781 21.908v188.129c0 7.537-3.344 13.625-9.98 18.266s-15.357 6.986-26.162 6.986c-9.943 0-18.053-2.346-24.266-6.986-6.238-4.641-9.344-10.729-9.344-18.266v-188.129zM919.984 844.824v-345.422h-81.766v38.125c-15.096-14.074-30.764-24.75-47.082-32.137-16.293-7.287-32.137-10.979-47.459-10.979-18.91 0-33.184 5.141-42.766 15.42-9.582 10.281-14.373 25.699-14.373 46.26v288.732h81.791v-264.78c0-8.234 1.723-14.123 5.141-17.814 3.445-3.645 8.982-5.49 16.643-5.49 6.037 0 13.648 2.445 22.801 7.285 9.207 4.84 17.641 11.029 25.301 18.564v262.234h81.77zM843.36 233.477c4.018-4.49 6.012-11.926 6.012-22.307v-21.508h-50.945v21.508c0 10.381 1.996 17.816 5.988 22.307 3.992 4.441 10.578 6.736 19.758 6.736 8.781 0 15.172-2.295 19.188-6.736zM601.71 71.545c-4.418 1.748-8.982 4.641-13.676 8.732v150.805c3.918 3.393 7.885 5.938 11.9 7.584 4.020 1.598 8.086 2.396 12.205 2.396 7.785 0 13.795-2.146 17.914-6.488 4.090-4.342 6.135-10.68 6.135-19.063v-124.355c0-7.885-1.646-13.623-4.988-17.066-3.344-3.492-8.482-5.189-15.568-5.189-4.891 0-9.533 0.848-13.922 2.645zM980.992 334.826c4.539-47.355 6.508-94.762 6.309-142.17 0.199-47.406-1.77-94.812-6.309-142.221 0-59.832-61.508-108.383-137.309-108.383-108.135-3.596-218.792-5.193-331.684-5.043-112.854-0.15-223.512 1.447-331.686 5.043-75.762 0-137.266 48.551-137.266 108.383-4.555 47.408-6.525 94.814-6.352 142.221-0.176 47.408 1.797 94.814 6.352 142.17 0 59.885 61.504 108.438 137.266 108.438 108.174 3.646 218.832 5.242 331.686 5.043 112.893 0.197 223.548-1.398 331.684-5.043 75.801 0 137.309-48.557 137.309-108.438zM242.502 33.070v283.642h67.205v52.293h-199.344v-52.293h67.193v-287.236h64.945v3.594zM473.536 277.34v3.545h-57.662v-188.131c-5.428-5.391-11.365-9.83-17.826-13.324-6.488-3.443-11.842-5.189-16.096-5.189-5.4 0-9.316 1.297-11.752 3.941-2.404 2.596-3.604 6.887-3.604 12.727v189.977h-57.688v-210.687c0-14.771 3.381-25.85 10.156-33.232 6.762-7.336 16.805-11.031 30.129-11.031 10.828 0 21.982 2.646 33.496 7.885 11.488 5.289 22.531 12.926 33.184 23.053v-27.395h57.662v247.864zM695.55 218.307v3.59c0 20.262-4.816 35.682-14.422 46.26-9.605 10.58-23.578 15.869-41.793 15.869-8.928 0-17.787-1.996-26.547-5.938-8.732-3.893-16.965-9.631-24.752-17.217v108.137h-58.209v-339.529h58.209v19.064c7.586-7.537 15.795-13.127 24.65-16.77 8.836-3.594 18.863-5.389 30.141-5.389 17.066 0 30.141 4.689 39.176 13.971 9.029 9.383 13.547 22.855 13.547 40.471v137.481zM908.73 210.721h0.002v3.541c0 23.504-7.109 41.568-21.23 54.096-14.176 12.525-34.434 18.813-60.832 18.813-25.799 0-46.885-6.785-63.176-20.311-16.27-13.574-24.426-31.090-24.426-52.598v-114.822c0-23.805 7.434-42.568 22.254-56.191 14.848-13.621 35.156-20.459 60.98-20.459 28.717 0 50.299 6.387 64.75 19.264 14.469 12.873 21.68 31.986 21.68 57.387v22.205h-59.361v-17.215c0-14.572-1.895-24.004-5.688-28.246-3.816-4.291-10.527-6.438-20.086-6.438-9.18 0-15.668 2.543-19.484 7.586-3.793 5.039-5.688 14.072-5.688 27.098v43.162h110.305v63.129z" />
<glyph unicode="&#xe10a;" d="M511.29 902.182c283.466 0 511.71-226.78 511.71-507.382 0-159.963-74.67-303.448-190.898-397.19-71.32 97.734-186.686 161.16-316.908 161.16-131.885 0-248.582-65.113-319.658-164.953-118.857 93.855-194.535 239.868-194.535 405.352 0 279.162 226.792 503.014 510.29 503.014zM512.754 201.438c104.652 0 190.477 87.199 190.477 191.918 0 103.256-85.824 187.529-190.477 187.529-104.674 0-190.467-82.852-190.467-186.086 0-106.16 85.793-193.361 190.467-193.361z" />
<glyph unicode="&#xe600;" d="M1005.28 621.248l-320 320c-15.872 15.872-38.88 22.24-60.672 16.864-11.488-2.816-21.76-8.736-29.888-16.864-7.264-7.264-12.736-16.256-15.872-26.304-14.496-47.008-39.552-87.872-76.64-124.928-49.536-49.504-114.048-87.008-182.304-126.656-72.448-41.984-147.296-85.504-208.64-146.816-52.128-52.192-87.616-110.24-108.416-177.632-7.008-22.752-0.896-47.36 15.872-64.192l320-320c15.872-15.872 38.88-22.24 60.672-16.864 11.488 2.88 21.76 8.736 29.888 16.864 7.264 7.264 12.736 16.256 15.872 26.368 14.528 47.008 39.584 87.872 76.704 124.928 49.504 49.504 113.984 86.944 182.304 126.56 72.384 42.048 147.264 85.568 208.576 146.88 52.128 52.128 87.616 110.24 108.448 177.632 6.976 22.72 0.832 47.424-15.904 64.16zM384 0c-105.984 105.984-214.016 214.048-320 320 90.944 294.432 485.12 281.568 576 576 105.984-105.952 214.048-214.016 320.064-320-90.976-294.368-485.152-281.568-576.064-576zM625.984 483.2c-10.432 8.736-20.928 14.688-31.488 17.632-10.496 2.944-20.992 4.128-31.616 3.36-10.496-0.8-21.248-3.2-32-7.328-10.752-4.192-21.568-8.736-32.448-14.016-17.184 19.744-34.368 39.264-51.552 57.376 7.744 7.008 15.264 10.56 22.496 10.816 7.264 0.32 14.24-0.448 20.864-2.112 6.752-1.696 12.928-3.136 18.624-4.256 5.76-1.12 10.752 0.128 15.136 3.808 4.64 4 7.2 9.184 7.552 15.424 0.32 6.304-2.048 12.448-7.328 18.432-6.752 7.744-14.88 12.448-24.64 14.176-9.632 1.696-19.488 1.568-29.76-0.672-10.112-2.304-19.744-6.112-28.864-11.488s-16.448-10.88-21.888-16.256c-2.080 1.984-4.16 3.936-6.24 5.888-2.304 2.112-5.184 3.264-8.64 3.2-3.488 0-6.368-1.504-8.736-4.256-2.304-2.688-3.36-5.824-2.944-9.12 0.32-3.424 1.696-6.048 4.064-8.064 2.080-1.76 4.16-3.488 6.24-5.312-8.192-9.888-14.944-20.8-20.256-32.32-5.376-11.552-8.576-23.008-9.76-34.112-1.248-11.2-0.064-21.44 3.36-30.944 3.424-9.568 9.76-17.696 19.008-25.376 15.072-12.512 32.8-17.824 53.376-16.64 20.512 1.248 42.624 7.36 66.4 20.128 18.88-21.824 37.824-43.488 56.736-63.616-8-6.752-15.008-10.624-21.184-11.872-6.176-1.312-11.68-1.184-16.672 0.32-4.992 1.568-9.632 3.808-13.888 6.688-4.256 2.944-8.448 5.44-12.64 7.488-4.128 2.048-8.384 3.2-12.736 3.264s-8.992-2.048-14.112-6.432c-5.248-4.576-7.872-9.888-7.872-15.872 0-5.952 2.752-12 8.128-18.112 5.44-6.112 12.512-11.264 21.056-15.328s18.208-6.624 28.832-7.328c10.624-0.736 21.824 0.864 33.632 5.248 11.872 4.32 23.616 12.128 35.2 23.744 5.568-5.44 11.2-10.624 16.8-15.616 2.368-2.048 5.248-3.072 8.736-2.816 3.36 0.128 6.304 1.696 8.64 4.512 2.368 2.88 3.36 6.048 3.008 9.376-0.32 3.36-1.696 5.952-4 7.808-5.632 4.512-11.264 9.248-16.864 14.24 9.568 11.744 17.248 24.128 22.944 36.384 5.696 12.32 9.056 24.192 10.176 35.2 1.12 11.072-0.192 21.056-3.808 30.112-3.584 9.184-9.952 17.056-19.072 24.64zM447.072 461.504c-9.056-0.384-16.96 2.624-23.872 9.312-2.944 2.816-4.992 6.24-6.24 10.304-1.312 4.064-1.76 8.512-1.248 13.376 0.448 4.8 1.888 9.824 4.384 14.88 2.368 5.056 5.888 10.112 10.368 15.008 16.224-16.128 32.416-33.824 48.64-52.128-12.288-6.752-22.976-10.368-32.032-10.752zM598.016 397.44c-2.88-5.312-6.176-10.048-10.048-14.176-17.952 18.112-35.872 38.016-53.76 58.432 4.576 2.048 9.376 4.192 14.56 6.368s10.368 3.616 15.552 4.512c5.312 0.8 10.56 0.576 15.808-0.672 5.184-1.312 10.112-4.128 14.688-8.576 4.512-4.512 7.36-9.184 8.512-14.24 1.248-5.12 1.312-10.304 0.448-15.616-0.928-5.344-2.816-10.656-5.76-16.032zM470.944 250.24c6.304 5.088 15.584 4.832 21.376-1.056 6.272-6.24 6.272-16.448 0-22.688-0.512-0.512-1.056-0.864-1.632-1.312l0.064-0.064c-20.256-15.392-36.896-29.248-54.848-47.2-16.224-16.192-30.88-33.248-43.552-50.56l-20.448-28c-0.64-1.152-1.408-2.208-2.368-3.2-6.272-6.24-16.48-6.24-22.72 0-5.44 5.44-6.112 13.824-2.112 20.064l-0.064 0.064 21.888 29.888c13.664 18.688 29.376 36.992 46.752 54.368 18.080 18.144 37.6 34.336 57.6 49.696h0.064zM588.096 713.12c16.192 16.192 30.816 33.184 43.52 50.592l21.248 29.12c0.768 1.376 1.632 2.752 2.816 3.936 6.304 6.304 16.512 6.304 22.816 0 5.984-6.016 6.24-15.52 0.8-21.888l0.064-0.064-21.888-30.016c-13.696-18.688-29.376-36.928-46.752-54.304-18.080-18.080-37.568-34.336-57.568-49.696l-0.128 0.064c-6.368-5.856-16.256-5.728-22.368 0.448-6.304 6.304-6.304 16.576 0 22.88 1.12 1.184 2.432 2.016 3.744 2.752 18.816 14.368 36.96 29.44 53.696 46.176z" />
<glyph unicode="&#xe601;" d="M128 384h341.333v426.667h-341.333v-426.667zM128 42.667h341.333v256h-341.333v-256zM554.667 42.667h341.333v426.667h-341.333v-426.667zM554.667 810.667v-256h341.333v256h-341.333z" />
<glyph unicode="&#xe602;" d="M512 27.734l-61.867 56.107c-219.733 199.467-364.8 331.093-364.8 492.16 0 131.627 103.040 234.667 234.667 234.667 74.24 0 145.493-34.56 192-88.96 46.507 54.4 117.76 88.96 192 88.96 131.627 0 234.667-103.040 234.667-234.667 0-161.067-145.067-292.693-364.8-492.16l-61.867-56.107z" />
<glyph unicode="&#xe603;" d="M704 810.667c-74.24 0-145.493-34.56-192-88.96-46.507 54.4-117.76 88.96-192 88.96-131.627 0-234.667-103.040-234.667-234.667 0-161.067 145.067-292.693 364.8-492.16l61.867-56.107 61.867 56.107c219.733 199.467 364.8 331.093 364.8 492.16 0 131.627-103.040 234.667-234.667 234.667zM516.48 146.987l-4.48-4.053-4.48 4.053c-202.88 184.107-336.853 305.707-336.853 429.013 0 85.12 64.213 149.333 149.333 149.333 65.707 0 129.707-42.453 152.107-100.693h79.573c22.613 58.24 86.613 100.693 152.32 100.693 85.12 0 149.333-64.213 149.333-149.333 0-123.307-133.973-244.907-336.853-429.013z" />
<glyph unicode="&#xe604;" d="M107.947 100.054l57.387-23.68v385.067l-103.467-249.813c-17.92-43.307 2.773-93.44 46.080-111.573zM939.947 258.347l-211.627 510.507c-13.227 32-44.373 51.84-77.013 52.48-11.307 0.213-22.827-1.92-34.133-6.4l-314.24-130.133c-32-13.227-51.627-44.16-52.48-76.8-0.213-11.52 1.707-23.040 6.4-34.347l211.413-510.507c13.44-32.427 44.8-52.053 78.080-52.48 11.093 0 22.187 1.92 33.067 6.4l314.24 130.133c43.307 17.92 64.213 67.84 46.293 111.147zM336 565.334c-23.467 0-42.667 19.2-42.667 42.667s19.2 42.667 42.667 42.667 42.667-19.2 42.667-42.667-19.2-42.667-42.667-42.667zM250.667 96c0-46.933 38.4-85.333 85.333-85.333h62.080l-147.413 355.84v-270.507z" />
<glyph unicode="&#xe605;" d="M853.333 426.667c0 47.147 38.187 85.333 85.333 85.333v170.667c0 47.147-38.187 85.333-85.333 85.333h-682.667c-47.147 0-84.907-38.187-84.907-85.333l-0.213-170.667c47.147-0.213 85.12-38.4 85.12-85.333 0-47.147-38.187-85.333-85.12-85.333l-0.213-170.667c0-47.147 38.187-85.333 85.333-85.333h682.667c47.147 0 85.333 38.187 85.333 85.333v170.667c-47.147 0-85.333 38.187-85.333 85.333zM664.747 221.867l-152.747 98.133-152.747-98.133 46.080 175.573-140.373 114.773 181.12 10.667 65.92 168.32 65.92-168.32 181.12-10.667-140.373-114.773 46.080-175.573z" />
<glyph unicode="&#xe606;" d="M704 384c-51.413 0-131.2-14.293-192-42.88-60.8 28.587-140.587 42.88-192 42.88-92.373 0-277.333-46.293-277.333-138.667v-117.333h938.667v117.333c0 92.373-184.96 138.667-277.333 138.667zM533.333 192h-426.667v53.333c0 22.827 109.227 74.667 213.333 74.667s213.333-51.84 213.333-74.667v-53.333zM917.333 192h-320v53.333c0 19.413-8.533 36.693-22.187 52.053 37.76 12.8 83.84 22.613 128.853 22.613 104.107 0 213.333-51.84 213.333-74.667v-53.333zM320 426.667c82.56 0 149.333 66.987 149.333 149.333s-66.773 149.333-149.333 149.333c-82.347 0-149.333-66.987-149.333-149.333s66.987-149.333 149.333-149.333zM320 661.334c47.147 0 85.333-38.187 85.333-85.333s-38.187-85.333-85.333-85.333-85.333 38.187-85.333 85.333 38.187 85.333 85.333 85.333zM704 426.667c82.56 0 149.333 66.987 149.333 149.333s-66.773 149.333-149.333 149.333c-82.347 0-149.333-66.987-149.333-149.333s66.987-149.333 149.333-149.333zM704 661.334c47.147 0 85.333-38.187 85.333-85.333s-38.187-85.333-85.333-85.333-85.333 38.187-85.333 85.333 38.187 85.333 85.333 85.333z" />
<glyph unicode="&#xe607;" d="M768 252.374c-32.427 0-61.653-12.587-83.84-32.853l-304 177.28c2.347 9.6 3.84 19.627 3.84 29.867s-1.493 20.267-3.84 29.867l300.8 175.573c22.827-21.333 53.333-34.56 87.040-34.56 70.613 0 128 57.387 128 128s-57.387 128-128 128-128-57.387-128-128c0-10.24 1.493-20.267 3.84-29.867l-300.8-175.573c-22.827 21.333-53.333 34.56-87.040 34.56-70.613 0-128-57.387-128-128s57.387-128 128-128c33.707 0 64.213 13.227 87.040 34.56l304-177.28c-2.133-8.96-3.413-18.347-3.413-27.947 0-68.693 55.68-124.373 124.373-124.373s124.373 55.68 124.373 124.373-55.68 124.373-124.373 124.373z" />
<glyph unicode="&#xe608;" d="M758.784 233.062c-126.208 45.978-166.554 84.787-166.554 167.885 0 49.869 38.554 33.587 55.45 124.928 7.014 37.888 41.062 0.614 47.616 87.091 0 34.458-18.586 43.059-18.586 43.059s9.472 51.046 13.158 90.266c4.506 48.947-28.262 175.309-203.469 175.309-175.155 0-208.026-126.362-203.418-175.309 3.686-39.219 13.158-90.266 13.158-90.266s-18.637-8.55-18.637-43.059c6.502-86.477 40.55-49.203 47.565-87.091 16.947-91.341 55.501-75.059 55.501-124.928 0-83.098-40.346-121.907-166.554-167.885-126.669-46.080-208.896-93.133-208.896-125.235 0-32.051 0-107.776 0-107.776h962.56c0 0 0 75.725 0 107.776s-82.278 79.104-208.896 125.235z" />
<glyph unicode="&#xe609;" d="M962.56 567.194h-328.346l-122.266 344.166-122.214-344.166h-328.294l267.827-202.138-95.744-354.816 278.426 212.685 278.426-212.685-95.744 354.816 267.93 202.138zM511.949 323.379l-154.214-128.051 63.59 182.374-145.971 117.76 180.275-5.12 56.269 206.848 56.32-206.848 180.275 5.12-145.971-117.76 63.642-182.374-154.214 128.051z" />
<glyph unicode="&#xe60a;" d="M698.778 595.814c-6.758 18.176 181.248 186.112 71.578 322.15-25.702 31.795-112.691-152.371-236.288-235.725-68.147-45.978-226.867-143.872-226.867-197.99v-350.259c0-65.075 251.597-133.99 442.829-133.99 70.093 0 171.571 439.040 171.571 508.826 0 69.99-216.064 68.762-222.822 86.989zM256 590.95c-33.638 0-153.6-20.48-153.6-159.846v-248.218c0-139.366 119.962-154.675 153.6-154.675s-51.2 29.286-51.2 115.661v326.298c0 90.522 84.838 120.781 51.2 120.781z" />
<glyph unicode="&#xe60b;" d="M402.381 220.467l-41.472-41.165c-35.942-35.584-94.362-35.635-130.253 0-17.254 17.152-26.726 39.834-26.726 64.051s9.523 46.95 26.726 64.102l152.576 151.398c31.59 31.386 91.085 77.517 134.451 34.509 19.917-19.763 52.070-19.61 71.782 0.256 19.763 19.866 19.661 52.019-0.256 71.782-73.677 73.114-182.63 59.597-277.504-34.509l-152.576-151.398c-36.557-36.352-56.73-84.685-56.73-136.141 0-51.405 20.173-99.738 56.781-136.090 37.683-37.427 87.142-56.064 136.602-56.064s99.021 18.637 136.704 56.064l41.472 41.216c19.917 19.763 20.019 51.917 0.256 71.731-19.763 19.866-51.917 19.968-71.834 0.256zM864.819 808.499c-79.155 78.541-189.798 82.79-263.117 10.086l-51.661-51.251c-19.917-19.763-20.070-51.866-0.307-71.782 19.814-19.917 51.917-20.019 71.782-0.256l51.661 51.251c37.939 37.683 87.654 22.067 120.115-10.086 17.254-17.101 26.726-39.885 26.726-64.051 0-24.218-9.523-46.95-26.726-64.051l-162.816-161.485c-74.394-73.83-109.363-39.219-124.262-24.422-19.917 19.763-52.019 19.61-71.731-0.256-19.763-19.917-19.661-52.070 0.256-71.782 34.15-33.894 73.216-50.688 114.074-50.688 50.074 0 102.963 25.19 153.242 75.11l162.765 161.485c36.608 36.301 56.781 84.634 56.781 136.038s-20.173 99.789-56.781 136.141z" />
<glyph unicode="&#xe60c;" d="M987.699 952.013c-5.53 16.128-22.989 24.627-38.963 19.046s-24.371-23.245-18.79-39.424c47.104-136.704-46.387-238.797-117.606-293.427l-28.826 41.677c-9.626 13.926-31.334 25.549-48.128 25.805l-161.536-0.768c-16.794 0.256-41.779-7.526-55.603-17.254l-475.955-337.306c-23.040-16.333-28.723-48.486-12.544-71.834l216.371-312.678c16.128-23.347 42.086-20.531 65.126-4.25l475.955 337.357c13.824 9.728 29.542 30.925 35.123 47.002l50.586 161.075c5.478 16.077 2.15 40.653-7.475 54.579l-17.613 25.395c95.693 73.984 195.021 204.902 139.878 365.005zM766.259 472.986c-36.915-26.163-87.757-17.050-113.613 20.275-25.805 37.325-16.845 88.781 20.070 114.944 29.286 20.787 67.328 19.251 94.72-0.922-13.824-8.397-23.245-13.21-25.037-14.080-15.258-7.27-21.811-25.702-14.592-41.165 5.222-11.213 16.179-17.818 27.699-17.818 4.352 0 8.806 0.973 13.005 2.97 9.779 4.659 20.378 10.342 31.386 16.947 4.915-30.362-7.066-62.31-33.638-81.152z" />
<glyph unicode="&#xe60d;" d="M251.187 381.85l181.862-181.862 333.67 333.67-181.914 181.862-333.619-333.67zM978.176 631.603l-77.414 77.363c-14.797-7.987-31.59-12.595-49.613-12.595-57.19 0-103.578 46.387-103.578 103.629 0 17.971 4.506 34.867 12.595 49.613l-77.414 77.363c-20.224 20.173-53.094 20.173-73.318 0l-563.61-563.661c-20.173-20.173-20.173-53.146 0-73.318l77.414-77.414c14.746 8.038 31.642 12.595 49.562 12.595 57.242 0 103.629-46.336 103.629-103.578 0-17.971-4.557-34.867-12.646-49.613l77.363-77.414c20.173-20.173 53.146-20.173 73.318 0l563.712 563.712c20.122 20.173 20.122 53.146 0 73.318zM433.050 116.787l-265.011 265.062 416.87 416.819 265.011-265.011-416.87-416.87z" />
<glyph unicode="&#xe60e;" d="M808.96 563.2h-92.16v122.88c0 148.326-68.352 235.52-204.8 235.52-136.499 0-204.8-87.194-204.8-235.52v-20.48h102.4v40.96c0 73.984 40.806 112.64 102.4 112.64 61.542 0 102.4-38.656 102.4-112.64v-143.36h-409.6c-28.314 0-51.2-33.126-51.2-61.44v-399.36c0-28.16 21.965-58.266 48.742-66.918l61.235-19.814c26.829-8.602 71.782-15.667 99.942-15.667h296.96c28.211 0 73.165 7.066 99.942 15.718l61.235 19.814c26.778 8.602 48.742 38.707 48.742 66.867v399.36c0 28.314-33.126 61.44-61.44 61.44z" />
<glyph unicode="&#xe60f;" d="M993.178 593.203l-381.184 102.093-66.714 248.934c-5.581 20.787-27.853 32.922-49.766 27.034l-464.64-124.467c-21.914-5.837-35.123-27.494-29.594-48.282l165.325-617.062c5.581-20.787 27.853-32.922 49.715-27.034l184.986 49.562-25.242-94.106c-5.581-20.838 7.629-42.445 29.542-48.333l415.232-111.258c21.914-5.837 44.186 6.246 49.766 27.034l152.115 567.603c5.581 20.787-7.629 42.445-29.542 48.282zM83.661 786.842l400.845 107.315 148.429-553.882-400.896-107.315-148.378 553.882zM802.765 27.392l-348.928 95.437 27.443 102.554 199.731 53.504c21.914 5.888 35.174 27.494 29.594 48.333l-77.21 288.102 304.435-83.507-135.066-504.422z" />
<glyph unicode="&#xe610;" d="M737.229 80.998c13.722-13.875 13.722-36.25 0-50.125s-35.891-13.875-49.613 0l-400.896 404.838c-13.722 13.875-13.722 36.301 0 50.125l400.896 404.89c13.722 13.875 35.891 13.875 49.613 0s13.722-36.25 0-50.125l-365.568-379.802 365.568-379.802z" />
<glyph unicode="&#xe611;" d="M132.198 686.029c-13.875 13.722-36.301 13.722-50.125 0-13.824-13.67-13.824-35.891 0-49.613l404.89-400.896c13.875-13.722 36.25-13.722 50.125 0l404.89 400.896c13.824 13.722 13.875 35.891 0 49.613s-36.352 13.722-50.125 0.051l-379.853-365.619-379.802 365.568z" />
<glyph unicode="&#xe612;" d="M891.802 235.571c13.875-13.722 36.301-13.722 50.125 0 13.875 13.722 13.875 35.891 0 49.613l-404.89 400.896c-13.824 13.722-36.25 13.722-50.074 0l-404.89-400.896c-13.824-13.722-13.875-35.891 0-49.613s36.25-13.722 50.125 0l379.802 365.619 379.802-365.619z" />
<glyph unicode="&#xe613;" d="M286.704 80.998c-13.722-13.875-13.722-36.25 0-50.125s35.891-13.875 49.613 0l400.896 404.838c13.722 13.875 13.722 36.301 0 50.125l-400.896 404.89c-13.722 13.875-35.891 13.875-49.613 0s-13.722-36.25 0-50.125l365.568-379.802-365.568-379.802z" />
<glyph unicode="&#xf158;" d="M596 628q0 57.143-37.143 92.571t-97.714 35.429h-182.857v-256h182.857q60.571 0 97.714 35.429t37.143 92.571zM731.429 628q0-110.286-72.286-180t-186.571-69.714h-194.286v-67.429h288.571q8 0 13.143-5.143t5.143-13.143v-73.143q0-8-5.143-13.143t-13.143-5.143h-288.571v-109.714q0-8-5.429-13.143t-12.857-5.143h-95.429q-8 0-13.143 5.143t-5.143 13.143v109.714h-128q-8 0-13.143 5.143t-5.143 13.143v73.143q0 8 5.143 13.143t13.143 5.143h128v67.429h-128q-8 0-13.143 5.143t-5.143 13.143v85.143q0 7.429 5.143 12.857t13.143 5.429h128v359.429q0 8 5.143 13.143t13.143 5.143h308q114.286 0 186.571-69.714t72.286-180z" horiz-adv-x="731" />
</font>
</defs>
</svg>
